Right_states
version=1
nRows=15
nColumns=41
inDegrees=yes

# SIMM Motion File Header:
name Right_states
datacolumns 41
datarows 15
otherdata 1
range 2.17611777 2.17946807
endheader
time	/jointset/sternoclavicular/sternoclavicular_r2/value	/jointset/sternoclavicular/sternoclavicular_r2/speed	/jointset/sternoclavicular/sternoclavicular_r3/value	/jointset/sternoclavicular/sternoclavicular_r3/speed	/jointset/unrotscap/unrotscap_r3/value	/jointset/unrotscap/unrotscap_r3/speed	/jointset/unrotscap/unrotscap_r2/value	/jointset/unrotscap/unrotscap_r2/speed	/jointset/acromioclavicular/acromioclavicular_r2/value	/jointset/acromioclavicular/acromioclavicular_r2/speed	/jointset/acromioclavicular/acromioclavicular_r3/value	/jointset/acromioclavicular/acromioclavicular_r3/speed	/jointset/acromioclavicular/acromioclavicular_r1/value	/jointset/acromioclavicular/acromioclavicular_r1/speed	/jointset/unrothum/unrothum_r1/value	/jointset/unrothum/unrothum_r1/speed	/jointset/unrothum/unrothum_r3/value	/jointset/unrothum/unrothum_r3/speed	/jointset/unrothum/unrothum_r2/value	/jointset/unrothum/unrothum_r2/speed	/jointset/shoulder0/elv_angle/value	/jointset/shoulder0/elv_angle/speed	/jointset/shoulder1/shoulder_elv/value	/jointset/shoulder1/shoulder_elv/speed	/jointset/shoulder1/shoulder1_r2/value	/jointset/shoulder1/shoulder1_r2/speed	/jointset/shoulder2/shoulder_rot/value	/jointset/shoulder2/shoulder_rot/speed	/jointset/elbow/elbow_flexion/value	/jointset/elbow/elbow_flexion/speed	/jointset/radioulnar/pro_sup/value	/jointset/radioulnar/pro_sup/speed	/jointset/radiocarpal/deviation/value	/jointset/radiocarpal/deviation/speed	/jointset/radiocarpal/flexion/value	/jointset/radiocarpal/flexion/speed	/jointset/wrist_hand/wrist_hand_r1/value	/jointset/wrist_hand/wrist_hand_r1/speed	/jointset/wrist_hand/wrist_hand_r3/value	/jointset/wrist_hand/wrist_hand_r3/speed
      2.17611777	      0.15574221	    -14.66110202	     -0.06596505	      6.20975085	      0.06596505	     -6.20975085	     -0.15574221	     14.66110202	      0.03153463	     -2.96857493	     -0.25485178	     23.99097836	     -0.11455412	     10.78377966	      0.11455412	    -10.78377966	      0.25485178	    -23.99097836	     -0.03153463	      2.96857493	    -16.55801258	     61.36863530	     -0.64356139	     60.58293041	     16.55801258	    -61.36863530	   -952.56712573	  -1769.16049191	    144.67537283	   -636.82267610	  -3149.20804501	   4182.67555801	     19.51717852	    754.51529971	    -31.90767189	     30.20612160	    727.80722839	  27791.15639233	   -914.08746661	    865.34164169
      2.17627079	      0.15348176	    -14.87716206	     -0.06500763	      6.30126368	      0.06500763	     -6.30126368	     -0.15348176	     14.87716206	      0.03107693	     -3.01232269	     -0.25115285	     24.34453239	     -0.11289148	     10.94269977	      0.11289148	    -10.94269977	      0.25115285	    -24.34453239	     -0.03107693	      3.01232269	    -16.54862266	     61.35766963	     -0.63422071	     61.47573849	     16.54862266	    -61.35766963	   -952.83263370	  -1702.16620079	    144.56900628	   -752.39069855	  -3148.60227990	   3734.84493510	     19.63183988	    743.46628368	    -31.90342374	     25.79630686	    732.03056485	  27384.18660328	   -913.96576615	    739.00975500
      2.17642381	      0.15119093	    -15.05780146	     -0.06403734	      6.37777401	      0.06403734	     -6.37777401	     -0.15119093	     15.05780146	      0.03061309	     -3.04889850	     -0.24740421	     24.64012517	     -0.11120649	     11.07556669	      0.11120649	    -11.07556669	      0.24740421	    -24.64012517	     -0.03061309	      3.04889850	    -16.53923408	     61.35108018	     -0.62475450	     62.22218061	     16.53923408	    -61.35108018	   -953.08842386	  -1642.15060659	    144.44549288	   -860.47910809	  -3148.06441187	   3298.24944568	     19.74456696	    729.53095903	    -31.89963337	     24.19332547	    736.18265534	  26870.90504775	   -913.85718011	    693.08772099
      2.17657684	      0.14887516	    -15.20366006	     -0.06305649	      6.43955283	      0.06305649	     -6.43955283	     -0.14887516	     15.20366006	      0.03014419	     -3.07843190	     -0.24361475	     24.87880372	     -0.10950315	     11.18285105	      0.10950315	    -11.18285105	      0.24361475	    -24.87880372	     -0.03014419	      3.07843190	    -16.52984619	     61.34859547	     -0.61518522	     62.82490075	     16.52984619	    -61.34859547	   -953.33555545	  -1588.95212471	    144.30613226	   -959.37573224	  -3147.59164307	   2885.19257379	     19.85504393	    714.28122933	    -31.89588980	     25.12838393	    740.25186746	  26309.20984662	   -913.74993470	    719.87517268
      2.17678894	      0.14563328	    -15.35644152	     -0.06168338	      6.50426384	      0.06168338	     -6.50426384	     -0.14563328	     15.35644152	      0.02948778	     -3.10936703	     -0.23830984	     25.12881062	     -0.10711863	     11.29522743	      0.10711863	    -11.29522743	      0.23830984	    -25.12881062	     -0.02948778	      3.10936703	    -16.51683372	     61.35100095	     -0.60178906	     63.45622768	     16.51683372	    -61.35100095	   -953.66567715	  -1525.86479226	    144.08943002	  -1081.12142607	  -3147.03663444	   2356.19897487	     20.00427440	    692.95704733	    -31.89011550	     29.92812354	    745.74849204	  25523.77358415	   -913.58451319	    857.37758367
      2.17700105	      0.14236390	    -15.46548637	     -0.06029863	      6.55045009	      0.06029863	     -6.55045009	     -0.14236390	     15.46548637	      0.02882579	     -3.13144640	     -0.23295993	     25.30724828	     -0.10471388	     11.37543393	      0.10471388	    -11.37543393	      0.23295993	    -25.30724828	     -0.02882579	      3.13144640	    -16.50382014	     61.35889891	     -0.58827926	     63.90682523	     16.50382014	    -61.35889891	   -953.98365844	  -1474.33566289	    143.84862789	  -1187.10149145	  -3146.58915230	   1868.86909890	     20.14909258	    672.86233533	    -31.88297027	     37.89974420	    751.08259820	  24783.62254397	   -913.37981738	   1085.74769354
      2.17721315	      0.13907475	    -15.54497972	     -0.05890550	      6.58411972	      0.05890550	     -6.58411972	     -0.13907475	     15.54497972	      0.02815981	     -3.14754218	     -0.22757767	     25.43732876	     -0.10229460	     11.43390421	      0.10229460	    -11.43390421	      0.22757767	    -25.43732876	     -0.02815981	      3.14754218	    -16.49080440	     61.37103401	     -0.57468778	     64.23530940	     16.49080440	    -61.37103401	   -954.29186600	  -1433.58437656	    143.58674272	  -1280.45487395	  -3146.24210005	   1406.16408009	     20.28984843	    654.72033581	    -31.87387359	     48.20701377	    756.26707596	  24115.39600683	   -913.11921667	   1381.02921590
      2.17742526	      0.13577086	    -15.60618239	     -0.05750613	      6.61004229	      0.05750613	     -6.61004229	     -0.13577086	     15.60618239	      0.02749084	     -3.15993448	     -0.22217127	     25.53747895	     -0.09986446	     11.47892103	      0.09986446	    -11.47892103	      0.22217127	    -25.53747895	     -0.02749084	      3.15993448	    -16.47778574	     61.38642431	     -0.56103534	     64.48821246	     16.47778574	    -61.38642431	   -954.59251109	  -1402.91290483	    143.30612158	  -1364.24369491	  -3145.99218116	    950.11294256	     20.42698509	    638.74711965	    -31.86240005	     60.22474555	    761.31824784	  23527.05253849	   -912.79052415	   1725.31187122
      2.17769330	      0.13157901	    -15.66958174	     -0.05573066	      6.63689526	      0.05573066	     -6.63689526	     -0.13157901	     15.66958174	      0.02664207	     -3.17277156	     -0.21531186	     25.64122369	     -0.09678120	     11.52555358	      0.09678120	    -11.52555358	      0.21531186	    -25.64122369	     -0.02664207	      3.17277156	    -16.46132858	     61.40940568	     -0.54371370	     64.75019263	     16.46132858	    -61.40940568	   -954.96482534	  -1377.49386884	    142.92735852	  -1460.39918073	  -3145.81609122	    359.13728354	     20.59582695	    621.62303590	    -31.84402036	     77.20585827	    767.53722122	  22896.31902024	   -912.26398465	   2211.78491628
      2.17796134	      0.12737120	    -15.72644290	     -0.05394843	      6.66097897	      0.05394843	     -6.66097897	     -0.12737120	     15.72644290	      0.02579008	     -3.18428479	     -0.20842634	     25.73426956	     -0.09368620	     11.56737706	      0.09368620	    -11.56737706	      0.20842634	    -25.73426956	     -0.02579008	      3.18428479	    -16.44486485	     61.43536728	     -0.52632611	     64.98515559	     16.44486485	    -61.43536728	   -955.33217334	  -1365.60633457	    142.52387046	  -1549.27015735	  -3145.80315124	   -270.65460326	     20.76051196	    607.68045428	    -31.82087475	     95.72607763	    773.60308450	  22382.77016807	   -911.60091182	   2742.35011889
      2.17819695	      0.12366020	    -15.77495744	     -0.05237662	      6.68152744	      0.05237662	     -6.68152744	     -0.12366020	     15.77495744	      0.02503867	     -3.19410799	     -0.20235376	     25.81365727	     -0.09095662	     11.60306129	      0.09095662	    -11.60306129	      0.20235376	    -25.81365727	     -0.02503867	      3.19410799	    -16.43038728	     61.46007326	     -0.51099140	     65.18562845	     16.43038728	    -61.46007326	   -955.65369220	  -1365.11214934	    142.15004833	  -1623.49082903	  -3145.93657167	   -869.77586657	     20.90248120	    597.79703477	    -31.79629491	    113.08564020	    778.83225546	  22018.73294123	   -910.89675111	   3239.66495363
      2.17843256	      0.11993780	    -15.82315663	     -0.05079999	      6.70194234	      0.05079999	     -6.70194234	     -0.11993780	     15.82315663	      0.02428496	     -3.20386735	     -0.19626253	     25.89252894	     -0.08821866	     11.63851356	      0.08821866	    -11.63851356	      0.19626253	    -25.89252894	     -0.02428496	      3.20386735	    -16.41590371	     61.48618563	     -0.49560961	     65.38479820	     16.41590371	    -61.48618563	   -955.97608062	  -1372.80682447	    141.75904565	  -1695.24780897	  -3146.21695255	  -1519.01473988	     21.04235974	    589.89578718	    -31.76751138	    131.40903809	    783.98441904	  21727.70530033	   -910.07216373	   3764.59163628
      2.17875244	      0.11486590	    -15.88681176	     -0.04865178	      6.72890365	      0.04865178	     -6.72890365	     -0.11486590	     15.88681176	      0.02325801	     -3.21675622	     -0.18796305	     25.99669225	     -0.08448810	     11.68533425	      0.08448810	    -11.68533425	      0.18796305	    -25.99669225	     -0.02325801	      3.21675622	    -16.39622921	     61.52346829	     -0.47465143	     65.64783535	     16.39622921	    -61.52346829	   -956.41836448	  -1394.39732439	    141.20156952	  -1789.66680957	  -3146.85491384	  -2486.17287199	     21.22970915	    581.95461578	    -31.72129308	    157.86889407	    790.88508326	  21435.20714133	   -908.74810702	   4522.61067330
      2.17907233	      0.10977455	    -15.94378328	     -0.04649532	      6.75303409	      0.04649532	     -6.75303409	     -0.10977455	     15.94378328	      0.02222711	     -3.22829179	     -0.17963171	     26.08991870	     -0.08074322	     11.72723890	      0.08074322	    -11.72723890	      0.17963171	    -26.08991870	     -0.02222711	      3.22829179	    -16.37654249	     61.56248909	     -0.45361282	     65.88325433	     16.37654249	    -61.56248909	   -956.86927159	  -1426.23628789	    140.61444003	  -1880.50984652	  -3147.81780579	  -3549.04344225	     21.41497472	    576.79980266	    -31.66630660	    186.24478568	    797.70899320	  21245.33926492	   -907.17286058	   5335.52008778
      2.17946807	      0.10345423	    -15.99307997	     -0.04381833	      6.77391384	      0.04381833	     -6.77391384	     -0.10345423	     15.99307997	      0.02094738	     -3.23827337	     -0.16928933	     26.17058629	     -0.07609439	     11.76349842	      0.07609439	    -11.76349842	      0.16928933	    -26.17058629	     -0.02094738	      3.23827337	    -16.35217012	     61.61274498	     -0.42749584	     66.08695918	     16.35217012	    -61.61274498	   -957.44312028	  -1475.24551979	    139.84915331	  -1985.37087382	  -3149.50043830	  -4970.44098692	     21.64253047	    573.86577417	    -31.58521835	    224.05716338	    806.09058268	  21137.26982675	   -904.84985313	   6418.76491572
